<svg width="102" height="123" viewBox="0 0 102 123" fill="none" xmlns="http://www.w3.org/2000/svg">
<path d="M56.6006 103.109C56.2039 103.116 55.776 103.143 55.3224 103.188C50.4662 103.667 42.9328 106.158 42.9328 106.158L34.3649 118.616C34.1316 118.953 33.7929 119.203 33.402 119.327C33.0111 119.451 32.5902 119.442 32.2052 119.3C25.582 116.849 19.7702 113.737 14.9157 109.836C14.6128 109.593 14.3946 109.26 14.2924 108.886C14.1902 108.511 14.2092 108.114 14.3467 107.751C14.4529 107.473 14.5772 107.162 14.7195 106.825C15.5169 104.974 16.9083 102.441 18.9142 101.244C22.2754 99.2399 26.7839 101.949 26.7839 101.949C26.7839 101.949 32.806 93.1125 34.7823 90.91C36.7587 88.7076 43.4053 85.9982 43.4053 85.9982L55.2823 94.3942C55.2823 94.3942 61.2696 103.034 56.6006 103.109Z" fill="#F8F8F8"/>
<path d="M98.3508 91.4442C98.3365 92.9126 97.8271 94.3333 96.9051 95.4763C94.7414 98.1649 90.0408 102.47 82.503 101.806C80.777 101.654 79.259 100.459 77.9261 98.5598C70.8674 88.5145 68.9497 58.7225 68.9497 58.7225L78.7191 50.7038C78.7191 50.7038 88.2628 51.0401 91.7654 54.1756C93.2944 55.5446 94.8217 60.0849 96.021 66.1272C96.6173 69.1314 97.1347 72.5085 97.5279 76.0526C97.8417 78.8734 98.0766 81.7969 98.2146 84.7218C98.3235 86.9785 98.3675 89.2351 98.3508 91.4442Z" fill="#F8F8F8"/>
<path d="M84.0499 102.689C83.5245 102.689 82.985 102.665 82.4314 102.617C77.528 102.185 73.6353 94.5947 70.8607 80.0586C68.8416 69.4805 68.1439 58.8807 68.1373 58.7749C68.1288 58.6673 68.1418 58.5591 68.1755 58.4565C68.2092 58.3539 68.263 58.2591 68.3337 58.1775C68.4044 58.0959 68.4906 58.0292 68.5873 57.9812C68.684 57.9332 68.7893 57.9049 68.897 57.898C69.0048 57.8911 69.1128 57.9057 69.2149 57.9409C69.3169 57.9761 69.411 58.0312 69.4916 58.1031C69.5721 58.175 69.6376 58.2621 69.6841 58.3595C69.7307 58.457 69.7574 58.5626 69.7628 58.6705C69.7694 58.7754 70.4618 69.2856 72.4629 79.7659C75.0104 93.105 78.6013 100.644 82.5747 100.994C89.7559 101.625 94.238 97.4888 96.2708 94.9663C97.0766 93.9653 97.5224 92.7222 97.5362 91.4372C97.6759 74.8669 94.1807 57.4324 91.221 54.7826C87.981 51.8811 78.7842 51.521 78.6916 51.5179C78.4757 51.5103 78.2717 51.4172 78.1244 51.2592C77.9771 51.1011 77.8986 50.8911 77.9062 50.6752C77.9138 50.4592 78.0069 50.2552 78.1649 50.1079C78.3229 49.9606 78.533 49.8821 78.7489 49.8897C79.1509 49.9038 88.6289 50.2749 92.3075 53.5692C95.9688 56.8475 99.3014 75.2574 99.1652 91.4508C99.1479 93.1037 98.5752 94.7027 97.5392 95.9906C95.4589 98.5699 91.0421 102.688 84.0499 102.689Z" fill="#371A45"/>
<path d="M98.2134 84.7218C95.1616 86.6915 89.8602 88.1081 87.8115 86.5628L88.0689 75.7022L88.2012 70.2474C88.2012 70.2474 92.0322 67.4327 96.021 66.1272C97.8643 65.5242 98.8921 68.2256 99.4929 71.5926C99.4999 71.6331 99.5066 71.6785 99.5158 71.7248C100.193 75.6193 100.313 80.3447 100.462 81.8763C100.549 82.7838 99.6203 83.8116 98.2134 84.7218Z" fill="#F8F8F8"/>
<path d="M90.3461 88.0336C89.1561 88.0336 88.0917 87.7956 87.3195 87.2129C87.1505 87.0816 87.0401 86.889 87.0119 86.6769C86.9838 86.4648 87.0403 86.2501 87.1692 86.0793C87.2981 85.9085 87.489 85.7952 87.7008 85.7641C87.9125 85.7329 88.1279 85.7863 88.3006 85.9127C89.7022 86.9705 93.8211 86.2776 97.1157 84.43C98.9228 83.4162 99.6963 82.4369 99.6492 81.9551C99.6078 81.5311 99.5698 80.8973 99.5222 80.0916C99.3305 76.8671 98.8214 68.3018 96.8729 66.9756C96.682 66.846 96.5084 66.8244 96.2726 66.9016C92.4596 68.1498 88.7171 70.8763 88.6796 70.9036C88.5936 70.9688 88.4954 71.0162 88.3908 71.0431C88.2862 71.07 88.1773 71.0758 88.0705 71.0603C87.9636 71.0447 87.8609 71.008 87.7684 70.9524C87.6758 70.8968 87.5953 70.8233 87.5314 70.7363C87.4675 70.6493 87.4215 70.5504 87.3962 70.4454C87.3708 70.3404 87.3666 70.2315 87.3838 70.1249C87.4009 70.0183 87.4391 69.9161 87.4961 69.8244C87.5531 69.7327 87.6277 69.6532 87.7157 69.5906C87.8766 69.4725 91.7001 66.6843 95.7661 65.3532C96.4806 65.1196 97.1805 65.2148 97.7892 65.6291C100.198 67.2683 100.786 73.9043 101.148 79.9951C101.195 80.7819 101.232 81.4033 101.27 81.7965C101.4 83.124 100.208 84.564 97.9126 85.8514C95.9102 86.974 92.8549 88.0336 90.3461 88.0336Z" fill="#371A45"/>
<g opacity="0.25">
<path d="M98.2134 84.7218C98.3218 86.9785 98.369 89.2352 98.3509 91.4443C98.3366 92.9127 97.8272 94.3333 96.9052 95.4763C94.7416 98.1649 90.0409 102.47 82.5031 101.806C80.7771 101.654 79.2591 100.459 77.9263 98.5598C78.0506 94.1593 78.665 93.8367 79.1529 89.5605C79.6792 84.9255 80.5827 81.9142 81.1861 81.2368L88.0685 75.7022L88.3986 75.4378C88.3986 75.4378 88.6424 78.0175 92.1799 77.8954C93.9958 77.8319 96.0449 77.1726 97.5267 76.0522C98.9314 74.9882 99.8239 73.5086 99.5145 71.7239C100.192 75.6185 100.312 80.3438 100.461 81.8754C100.549 82.7838 99.6203 83.8117 98.2134 84.7218Z" fill="#371A45"/>
</g>
<path d="M98.617 69.2191C97.3599 69.6034 96.0879 70.0389 94.8705 70.5365C94.0357 70.9036 93.0687 71.269 92.4301 71.8786C92.3997 71.9081 92.3917 71.9293 92.3684 71.9548C92.3684 71.9707 92.3569 71.9654 92.3521 71.9817C92.312 72.1817 92.2852 72.3842 92.2718 72.5878C92.1973 73.8972 92.237 75.2552 92.2718 76.596C92.313 77.9412 92.3701 79.287 92.4433 80.6333C92.2403 79.3008 92.0518 77.9654 91.8778 76.6273C91.7125 75.2843 91.5393 73.9545 91.4811 72.5723C91.4811 72.352 91.4741 72.0976 91.5062 71.872C91.5195 71.6877 91.616 71.4885 91.7213 71.3431C92.4499 70.4519 93.4222 70.0049 94.3659 69.4659C95.5863 68.8224 96.8187 68.2609 98.0929 67.7297C99.1247 67.345 99.6695 68.8695 98.6187 69.2213L98.617 69.2191Z" fill="#371A45"/>
<path d="M32.8489 120.229C32.5338 120.229 32.2213 120.173 31.9259 120.063C25.066 117.527 19.1722 114.299 14.4081 110.471C13.9704 110.121 13.655 109.641 13.5075 109.1C13.3599 108.559 13.3877 107.986 13.5869 107.462C14.3155 105.539 15.923 102.084 18.4992 100.546C21.4492 98.7859 25.0435 100.17 26.524 100.89C27.9278 98.8441 32.4694 92.2719 34.1786 90.3674C36.2564 88.0521 42.8201 85.3578 43.0982 85.2441C43.2982 85.1623 43.5225 85.1632 43.7218 85.2468C43.9211 85.3304 44.0791 85.4897 44.1609 85.6897C44.2427 85.8897 44.2417 86.114 44.1582 86.3133C44.0746 86.5126 43.9153 86.6705 43.7153 86.7524C41.9152 87.4871 36.9104 89.7645 35.3929 91.4552C33.4747 93.5924 27.5201 102.321 27.4593 102.409C27.3422 102.581 27.1639 102.701 26.9608 102.746C26.7577 102.79 26.5453 102.755 26.3671 102.648C26.327 102.624 22.2293 100.218 19.3344 101.943C17.1817 103.227 15.7643 106.312 15.1111 108.037C15.0343 108.239 15.0237 108.461 15.0808 108.67C15.1379 108.879 15.2598 109.064 15.4289 109.199C20.0568 112.917 25.7968 116.058 32.4914 118.534C32.7062 118.614 32.9413 118.619 33.1597 118.55C33.378 118.481 33.5671 118.341 33.6969 118.152L42.2652 105.695C42.366 105.549 42.512 105.439 42.6808 105.384C43.0528 105.261 51.8512 102.369 56.5893 102.293C57.2945 102.282 57.4268 102.031 57.4673 101.949C58.0654 100.785 56.119 97.0281 54.6152 94.8556C54.5493 94.768 54.5019 94.6679 54.4757 94.5614C54.4494 94.455 54.445 94.3443 54.4625 94.236C54.4801 94.1278 54.5194 94.0242 54.5779 93.9315C54.6365 93.8388 54.7132 93.7589 54.8034 93.6966C54.8936 93.6342 54.9954 93.5907 55.1029 93.5687C55.2103 93.5467 55.321 93.5465 55.4285 93.5684C55.5359 93.5902 55.6379 93.6334 55.7282 93.6956C55.8186 93.7577 55.8954 93.8375 55.9542 93.9301C56.67 94.9632 60.1766 100.241 58.9161 102.695C58.6349 103.243 58.0072 103.901 56.6153 103.923C52.5604 103.989 44.9472 106.368 43.4508 106.848L35.039 119.077C34.7948 119.432 34.4679 119.723 34.0863 119.924C33.7047 120.124 33.28 120.229 32.8489 120.229Z" fill="#371A45"/>
<g opacity="0.25">
<path d="M56.9217 99.3818C56.9217 99.89 56.5827 100.173 56.1874 101.189C56.0225 101.612 55.7109 102.341 55.3244 103.188C50.4681 103.667 42.9347 106.158 42.9347 106.158L34.3669 118.616C34.1335 118.953 33.7948 119.203 33.404 119.327C33.0131 119.451 32.5921 119.442 32.2072 119.3C25.5839 116.849 19.7721 113.737 14.9176 109.836C14.6148 109.593 14.3966 109.26 14.2944 108.886C14.1921 108.511 14.2111 108.114 14.3486 107.751C14.4548 107.473 14.5791 107.162 14.7215 106.825L16.9125 108.115C24.5248 112.258 30.0677 112.547 32.7515 107.512C32.7515 107.512 37.9467 100.51 42.0955 97.6184C46.2444 94.727 45.6846 90.1189 45.6846 90.1189L55.6801 98.1376C56.0181 98.4219 56.9217 98.8736 56.9217 99.3818Z" fill="#371A45"/>
</g>
<path d="M43.0302 106.61C42.976 106.61 42.922 106.604 42.8693 106.591C34.599 104.581 29.5955 98.1093 29.3866 97.8347C29.3327 97.7639 29.2932 97.6832 29.2705 97.5972C29.2478 97.5112 29.2422 97.4215 29.2542 97.3333C29.2661 97.2451 29.2953 97.1602 29.34 97.0833C29.3848 97.0064 29.4443 96.939 29.5151 96.8851C29.5859 96.8312 29.6666 96.7918 29.7526 96.769C29.8386 96.7463 29.9283 96.7408 30.0165 96.7527C30.1047 96.7646 30.1896 96.7938 30.2665 96.8386C30.3434 96.8833 30.4108 96.9428 30.4647 97.0136C30.5193 97.0846 35.4038 103.382 43.1893 105.274C43.3505 105.313 43.4917 105.41 43.5864 105.546C43.681 105.682 43.7225 105.848 43.7029 106.013C43.6833 106.178 43.604 106.329 43.48 106.439C43.356 106.549 43.196 106.61 43.0302 106.61Z" fill="#371A45"/>
<path d="M26.5721 89.1206C26.5721 89.1206 32.9754 87.8062 38.0499 84.0783L25.5791 85.0281" fill="#F8F8F8"/>
<g opacity="0.25">
<path d="M26.5721 89.1206C26.5721 89.1206 32.9754 87.8062 38.0499 84.0783L25.5791 85.0281" fill="#371A45"/>
</g>
<path d="M26.5711 89.9351C26.3695 89.9348 26.1751 89.8597 26.0257 89.7244C25.8762 89.5891 25.7822 89.4031 25.7619 89.2025C25.7417 89.002 25.7965 88.801 25.9158 88.6385C26.0352 88.476 26.2105 88.3635 26.408 88.3228C26.4702 88.31 32.7033 86.9953 37.5675 83.422C37.7418 83.2988 37.9575 83.249 38.1682 83.2832C38.3789 83.3174 38.5677 83.4329 38.6941 83.6049C38.8204 83.7769 38.8743 83.9916 38.8439 84.2029C38.8136 84.4142 38.7016 84.6051 38.5319 84.7346C33.375 88.5251 27.0044 89.8633 26.7355 89.9183C26.6814 89.9295 26.6263 89.9352 26.5711 89.9351Z" fill="#371A45"/>
<path d="M79.2277 107.814L70.3844 119.371C68.1806 122.25 64.1318 123.016 61.0668 121.078C58.3473 119.359 56.0497 116.149 54.6357 112.765C53.5744 110.233 53.0093 107.602 53.127 105.417C53.1747 104.646 53.4339 103.902 53.8763 103.267L54.7847 101.941C54.7847 101.941 46.8312 99.5171 45.1189 87.1094V83.8702C45.1189 83.8702 40.9784 83.5948 40.6756 83.0548C40.3728 82.5149 36.5444 69.3394 36.5444 69.3394C36.5444 69.3394 41.7308 60.9024 49.1849 57.6294C52.6995 56.0867 57.6082 55.4948 61.8117 55.2982C66.5238 55.0778 70.3526 55.3591 70.3526 55.3591L76.9799 55.0091C76.9799 55.0091 82.6158 56.6152 85.6266 61.9594C88.6374 67.3035 89.5436 76.7393 86.833 81.5483C90.355 93.529 88.8437 102.829 79.2277 107.814Z" fill="#F8F8F8"/>
<path d="M64.7465 122.949C63.2903 122.953 61.8631 122.543 60.6316 121.766C55.3866 118.446 52.0395 110.462 52.3136 105.373C52.3698 104.452 52.6783 103.564 53.2053 102.807L53.5469 102.308C51.2496 101.191 45.7292 97.4822 44.3126 87.22C44.3073 87.1832 44.3046 87.1461 44.3046 87.109V84.6271C40.4441 84.3084 40.1355 83.757 39.9658 83.4524C39.6644 82.9125 37.2023 74.521 35.7615 69.5686C35.7297 69.4596 35.7211 69.345 35.7363 69.2325C35.7515 69.1199 35.7901 69.0117 35.8496 68.915C36.0669 68.5624 41.2577 60.2237 48.8577 56.8859C56.41 53.5687 69.8429 54.5084 70.4106 54.5499C70.6245 54.5677 70.8226 54.6692 70.962 54.8322C71.1015 54.9953 71.1709 55.2069 71.1553 55.4208C71.1397 55.6348 71.0403 55.834 70.8786 55.9751C70.717 56.1163 70.5062 56.1879 70.2921 56.1745C70.1568 56.1648 56.693 55.2233 49.5122 58.3783C43.1613 61.1674 38.4214 67.9656 37.4288 69.4712C38.7877 74.1379 40.8848 81.2394 41.341 82.5286C41.9074 82.7336 43.6955 82.9628 45.1729 83.0615C45.3791 83.0753 45.5724 83.1669 45.7135 83.3178C45.8547 83.4687 45.9332 83.6676 45.9332 83.8743V87.0556C47.572 98.7634 54.9476 101.144 55.0221 101.166C55.1444 101.203 55.2562 101.269 55.3485 101.357C55.4408 101.446 55.511 101.555 55.5533 101.676C55.5956 101.796 55.6089 101.925 55.5921 102.052C55.5753 102.179 55.5289 102.3 55.4567 102.405L54.5487 103.73C54.191 104.241 53.9803 104.839 53.9396 105.461C53.6897 110.089 56.871 117.458 61.5016 120.389C64.1744 122.081 67.7912 121.416 69.7358 118.876L78.5809 107.321C78.6538 107.226 78.7466 107.148 78.8529 107.093C87.4035 102.661 89.7563 94.381 86.0513 81.7789C86.0206 81.6744 86.0111 81.5649 86.0234 81.4567C86.0358 81.3485 86.0697 81.2439 86.1231 81.1491C88.5345 76.8715 87.9492 67.7412 84.9181 62.3614C82.1158 57.387 76.8082 55.8082 76.7562 55.7941C76.5485 55.7348 76.3728 55.5954 76.2679 55.4065C76.163 55.2177 76.1373 54.9949 76.1967 54.7872C76.256 54.5795 76.3954 54.4038 76.5842 54.2989C76.7731 54.194 76.9958 54.1683 77.2036 54.2277C77.4469 54.2969 83.1979 55.9907 86.3374 61.5627C89.2759 66.7782 90.4399 76.3514 87.7077 81.6427C89.5245 87.9548 89.8638 93.1464 88.7461 97.5099C87.5261 102.27 84.5051 105.951 79.7648 108.456L71.0303 119.868C69.4947 121.871 67.1296 122.949 64.7465 122.949Z" fill="#371A45"/>
<path d="M51.1456 71.7239H68.3258C69.0654 71.7239 69.7747 72.0177 70.2977 72.5407C70.8207 73.0637 71.1145 73.773 71.1145 74.5126V84.9144C71.1145 85.6421 70.8301 86.3409 70.3221 86.8619C69.814 87.3828 69.1225 87.6845 68.395 87.7027L51.2148 88.1289C50.8429 88.1381 50.4728 88.0727 50.1265 87.9367C49.7802 87.8007 49.4646 87.5968 49.1983 87.337C48.932 87.0772 48.7204 86.7667 48.5759 86.4239C48.4314 86.081 48.3569 85.7127 48.3569 85.3407V74.5126C48.3569 73.773 48.6507 73.0637 49.1737 72.5407C49.6967 72.0177 50.406 71.7239 51.1456 71.7239Z" fill="#F8F8F8"/>
<path d="M51.1426 88.9451C50.1875 88.9442 49.2718 88.5641 48.5967 87.8884C47.9217 87.2127 47.5425 86.2966 47.5425 85.3415V74.5125C47.5436 73.5573 47.9236 72.6415 48.5991 71.966C49.2746 71.2905 50.1904 70.9105 51.1457 70.9094H68.3259C69.2812 70.9105 70.197 71.2905 70.8724 71.966C71.5479 72.6415 71.9279 73.5573 71.9291 74.5125V84.9144C71.9343 85.8561 71.5686 86.7621 70.9111 87.4362C70.2535 88.1104 69.3569 88.4985 68.4154 88.5167L51.2351 88.9429C51.2043 88.9444 51.1734 88.9451 51.1426 88.9451ZM51.1457 72.5384C50.6223 72.539 50.1205 72.7472 49.7504 73.1173C49.3803 73.4874 49.1721 73.9891 49.1715 74.5125V85.3415C49.1714 85.6049 49.2241 85.8657 49.3263 86.1084C49.4286 86.3512 49.5784 86.571 49.7669 86.755C49.9554 86.939 50.1789 87.0833 50.4241 87.1796C50.6693 87.2759 50.9312 87.3222 51.1946 87.3156L68.3748 86.8894C68.8908 86.8795 69.3822 86.6667 69.7426 86.2973C70.1029 85.9278 70.3034 85.4314 70.3005 84.9153V74.5134C70.2998 73.99 70.0915 73.4882 69.7213 73.1181C69.3512 72.748 68.8493 72.5399 68.3259 72.5393L51.1457 72.5384Z" fill="#371A45"/>
<path d="M46.1949 71.9121H63.3752C64.1148 71.9122 64.8241 72.2061 65.3471 72.7292C65.87 73.2522 66.1638 73.9616 66.1638 74.7012V85.1031C66.1639 85.8308 65.8796 86.5297 65.3715 87.0506C64.8634 87.5715 64.1718 87.8732 63.4443 87.8913L46.2641 88.3175C45.8922 88.3267 45.5222 88.2613 45.1758 88.1253C44.8295 87.9893 44.5139 87.7854 44.2476 87.5256C43.9813 87.2658 43.7697 86.9553 43.6252 86.6125C43.4807 86.2696 43.4063 85.9013 43.4063 85.5293V74.7012C43.4062 74.335 43.4783 73.9723 43.6184 73.6339C43.7585 73.2955 43.9639 72.988 44.2229 72.729C44.4818 72.47 44.7893 72.2646 45.1276 72.1244C45.466 71.9843 45.8287 71.9121 46.1949 71.9121Z" fill="#F8F8F8"/>
<path d="M58.0329 88.8164C57.8267 88.8164 57.6286 88.7357 57.481 88.5916C57.3334 88.4474 57.248 88.2513 57.2431 88.0451C57.2087 86.6484 57.1673 84.4596 57.2074 83.3317C55.9689 83.0231 52.2537 82.5317 48.9154 82.1857C48.7272 82.1663 48.5522 82.08 48.4223 81.9425C48.2923 81.805 48.216 81.6254 48.2071 81.4364L47.7554 71.9491C47.748 71.8441 47.7616 71.7386 47.7956 71.6388C47.8295 71.5391 47.883 71.4472 47.953 71.3684C48.023 71.2896 48.108 71.2257 48.203 71.1802C48.2981 71.1348 48.4012 71.1088 48.5064 71.1037C48.6117 71.0987 48.7168 71.1148 48.8158 71.151C48.9147 71.1872 49.0054 71.2428 49.0826 71.3145C49.1597 71.3862 49.2218 71.4726 49.265 71.5687C49.3083 71.6647 49.332 71.7685 49.3346 71.8738L49.7542 80.6836C58.1017 81.57 58.4508 82.0552 58.6623 82.3488C58.7323 82.4452 58.7811 82.5553 58.8055 82.6719C58.8299 82.7885 58.8293 82.909 58.8038 83.0254C58.7496 83.3705 58.7703 85.833 58.8237 88.0059C58.8287 88.2155 58.7504 88.4185 58.6058 88.5703C58.4613 88.7222 58.2623 88.8104 58.0528 88.8156L58.0329 88.8164ZM57.2603 82.6846C57.2563 82.7018 57.2532 82.719 57.2506 82.7362C57.2537 82.7168 57.2568 82.6996 57.2603 82.6829V82.6846Z" fill="#371A45"/>
<path d="M46.1923 89.1333C45.2371 89.1325 44.3213 88.7525 43.6462 88.0768C42.971 87.4011 42.5918 86.4849 42.5918 85.5297V74.7008C42.593 73.7455 42.973 72.8297 43.6484 72.1542C44.3239 71.4788 45.2397 71.0988 46.195 71.0976H63.3752C64.3305 71.0988 65.2463 71.4788 65.9218 72.1542C66.5972 72.8297 66.9772 73.7455 66.9784 74.7008V85.1026C66.9837 86.0443 66.618 86.9503 65.9604 87.6244C65.3028 88.2986 64.4063 88.6867 63.4647 88.7049L46.2844 89.1311L46.1923 89.1333ZM46.195 72.7266C45.6715 72.7272 45.1697 72.9354 44.7995 73.3055C44.4294 73.6755 44.2211 74.1773 44.2204 74.7008V85.5297C44.2204 85.7931 44.2732 86.0539 44.3755 86.2966C44.4778 86.5394 44.6277 86.7592 44.8162 86.9431C45.0048 87.1271 45.2282 87.2714 45.4734 87.3677C45.7186 87.464 45.9806 87.5103 46.2439 87.5039L63.4241 87.0776C63.9401 87.0677 64.4314 86.855 64.7917 86.4855C65.152 86.116 65.3524 85.6196 65.3494 85.1035V74.7017C65.3488 74.1783 65.1406 73.6765 64.7705 73.3064C64.4004 72.9363 63.8986 72.7281 63.3752 72.7275L46.195 72.7266Z" fill="#371A45"/>
<path d="M65.6248 81.9186L65.5617 83.1113C65.5416 83.483 65.3833 83.8337 65.1179 84.0947C64.8524 84.3556 64.499 84.508 64.1271 84.5217L42.2682 85.301L12.0539 86.3808C11.8577 86.3878 11.6621 86.3559 11.4783 86.287C11.2945 86.2182 11.1261 86.1137 10.9827 85.9796C10.8394 85.8454 10.7239 85.6843 10.643 85.5055C10.5621 85.3266 10.5174 85.1335 10.5113 84.9373L10.4729 83.6975C10.4656 83.4669 10.5121 83.2378 10.6089 83.0283C10.7057 82.8189 10.8501 82.635 11.0305 82.4911H11.0331C11.2817 82.2877 11.5905 82.1718 11.9116 82.1615L42.0447 81.1155H42.1056L64.0843 80.3522C64.2907 80.345 64.4964 80.3808 64.6883 80.4573C64.8802 80.5338 65.0541 80.6494 65.1989 80.7967C65.3438 80.944 65.4564 81.1198 65.5297 81.3129C65.603 81.506 65.6354 81.7123 65.6248 81.9186Z" fill="#BCC4CC"/>
<g opacity="0.61">
<path d="M65.6251 81.9186L65.581 82.7454C65.497 82.4152 65.3025 82.1235 65.0299 81.9189C64.7574 81.7144 64.4231 81.6091 64.0824 81.6206L42.1275 82.384L42.0962 81.1146L64.086 80.3513C64.2924 80.3443 64.498 80.3802 64.6898 80.4569C64.8816 80.5336 65.0553 80.6492 65.2 80.7966C65.3447 80.944 65.4573 81.1198 65.5304 81.3129C65.6036 81.5061 65.6358 81.7123 65.6251 81.9186Z" fill="#CEB7FF"/>
</g>
<path d="M42.3136 85.1894L42.2638 85.185L11.0331 82.4924H11.0305L9.84486 79.8973L0.828312 60.173C0.712878 59.9219 0.666874 59.6444 0.69509 59.3694C0.723307 59.0944 0.824712 58.8321 0.988748 58.6096L1.68911 57.6563C1.82558 57.4721 2.0012 57.3204 2.20332 57.2123C2.40544 57.1041 2.62904 57.0422 2.85799 57.0308L29.0336 55.646C29.9023 55.5995 30.7634 55.8282 31.4946 56.2994C32.2258 56.7706 32.7897 57.4604 33.1062 58.2707L33.1604 58.4064L42.0447 81.119L42.1981 83.4524L42.3136 85.1894Z" fill="#BCC4CC"/>
<g opacity="0.61">
<path d="M42.0694 81.4928L33.558 59.7353C33.2414 58.9251 32.6775 58.2353 31.9463 57.7641C31.2151 57.2929 30.354 57.0642 29.4854 57.1106L3.30977 58.4968C3.08081 58.5086 2.85731 58.571 2.65541 58.6796C2.4535 58.7882 2.27822 58.9403 2.14221 59.1249L1.44184 60.0778C1.2728 60.3069 1.17044 60.5782 1.1461 60.8619L0.828312 60.173C0.712878 59.9219 0.666874 59.6444 0.69509 59.3694C0.723307 59.0944 0.824712 58.8321 0.988748 58.6096L1.68911 57.6563C1.82558 57.4721 2.0012 57.3204 2.20332 57.2123C2.40544 57.1041 2.62904 57.0422 2.85799 57.0308L29.0336 55.646C29.9023 55.5995 30.7634 55.8282 31.4946 56.2994C32.2258 56.7706 32.7897 57.4604 33.1062 58.2707L42.0447 81.119L42.0694 81.4928Z" fill="#CEB7FF"/>
</g>
<path d="M11.9995 87.0728C11.4336 87.0721 10.8903 86.8513 10.4842 86.4573C10.0781 86.0632 9.8412 85.5267 9.82347 84.9611L9.78468 83.72C9.7673 83.1435 9.97867 82.5836 10.3727 82.1625C10.7666 81.7414 11.3112 81.4932 11.8875 81.4721L64.0607 79.6602C64.3627 79.6497 64.6635 79.7022 64.9441 79.8142C65.2247 79.9263 65.4789 80.0954 65.6907 80.3109C65.9024 80.5264 66.0671 80.7836 66.1741 81.0661C66.2812 81.3487 66.3283 81.6504 66.3125 81.9521L66.2504 83.1448C66.2245 83.6898 65.9941 84.2049 65.6051 84.5875C65.2162 84.9701 64.6973 85.192 64.152 85.2089L12.0793 87.0688C12.0528 87.0724 12.0259 87.0728 11.9995 87.0728ZM11.9356 82.8517C11.7239 82.8595 11.5239 82.9507 11.3792 83.1053C11.2345 83.26 11.1567 83.4655 11.1629 83.6772L11.2013 84.9184C11.2046 85.0239 11.2287 85.1276 11.2722 85.2237C11.3157 85.3198 11.3778 85.4064 11.4549 85.4784C11.532 85.5505 11.6225 85.6066 11.7214 85.6435C11.8202 85.6805 11.9253 85.6975 12.0308 85.6937L64.103 83.8337C64.3035 83.8275 64.4943 83.7459 64.6373 83.6052C64.7803 83.4645 64.8649 83.2751 64.8744 83.0747L64.9369 81.882C64.9432 81.7711 64.926 81.6601 64.8866 81.5563C64.8472 81.4524 64.7864 81.358 64.7082 81.2791C64.631 81.199 64.5377 81.1363 64.4344 81.095C64.3312 81.0538 64.2203 81.0349 64.1092 81.0397L11.9356 82.8517Z" fill="#371A45"/>
<path d="M42.3137 85.8779C42.1389 85.8778 41.9706 85.8111 41.843 85.6916C41.7155 85.572 41.6381 85.4084 41.6266 85.234L41.3647 81.2672L32.465 58.518C32.2012 57.8428 31.7312 57.2679 31.122 56.875C30.5127 56.4822 29.7951 56.2913 29.0712 56.3296L2.89599 57.7141C2.76878 57.7206 2.64463 57.7554 2.53255 57.8159C2.42047 57.8765 2.3233 57.9612 2.24808 58.064L1.54728 59.0165C1.45666 59.1403 1.40071 59.286 1.38521 59.4387C1.36972 59.5913 1.39523 59.7453 1.45913 59.8848L11.66 82.2051C11.6976 82.2874 11.7187 82.3763 11.7219 82.4668C11.7252 82.5572 11.7106 82.6474 11.679 82.7322C11.6474 82.817 11.5994 82.8948 11.5378 82.961C11.4761 83.0273 11.402 83.0807 11.3197 83.1184C11.2374 83.156 11.1485 83.177 11.0581 83.1803C10.9676 83.1835 10.8774 83.169 10.7926 83.1374C10.7078 83.1058 10.6301 83.0578 10.5638 82.9961C10.4976 82.9345 10.4441 82.8604 10.4065 82.7781L0.202533 60.4591C0.0367387 60.0962 -0.0291056 59.6955 0.0118081 59.2986C0.0527218 58.9018 0.19891 58.523 0.435253 58.2015L1.13605 57.2486C1.33194 56.9815 1.58481 56.7613 1.87633 56.6041C2.16785 56.4468 2.49071 56.3564 2.8215 56.3393L28.9967 54.9545C30.0102 54.9002 31.0151 55.167 31.8683 55.7169C32.7214 56.2668 33.3794 57.0718 33.7485 58.0173L42.687 80.8657C42.712 80.9315 42.7268 81.0007 42.7311 81.071L43 85.1432C43.006 85.2335 42.9942 85.3241 42.9652 85.4099C42.9361 85.4956 42.8905 85.5748 42.8309 85.6428C42.7712 85.7109 42.6987 85.7666 42.6175 85.8066C42.5364 85.8466 42.4481 85.8703 42.3578 85.8762C42.3446 85.8775 42.3291 85.8779 42.3137 85.8779Z" fill="#371A45"/>
<g opacity="0.25">
<path d="M42.2681 85.3023L12.0538 86.3821C11.8576 86.3891 11.662 86.3572 11.4782 86.2883C11.2943 86.2195 11.1259 86.115 10.9826 85.9809C10.8393 85.8467 10.7238 85.6856 10.6429 85.5068C10.562 85.3279 10.5172 85.1349 10.5111 84.9386L10.4728 83.6988C10.4654 83.4682 10.512 83.2391 10.6088 83.0296C10.7056 82.8202 10.8499 82.6363 11.0304 82.4925L9.84473 79.8973C23.8608 79.5447 32.6759 74.4531 31.7195 61.4693V57.6294L33.1603 58.4042L42.0446 81.1169H42.1054C42.1394 81.9481 42.1711 82.7362 42.198 83.4529C42.2231 84.099 42.2456 84.6839 42.2637 85.1877C42.2659 85.2256 42.2659 85.2639 42.2681 85.3023Z" fill="#371A45"/>
</g>
<path d="M15.1892 87.2971C15.1892 87.2971 16.507 82.2901 21.8155 83.154C27.124 84.0179 28.366 89.2907 24.639 91.2106C20.912 93.1305 9.05297 92.8295 10.5586 83.4176C10.5586 83.4194 11.0099 86.1675 15.1892 87.2971Z" fill="#F8F8F8"/>
<g opacity="0.25">
<path d="M24.6379 91.2115C22.063 92.5377 15.6073 92.804 12.3589 89.7389C15.5054 90.5812 19.1333 90.1704 20.9096 89.2541C23.4219 87.9601 23.6766 85.1432 21.9484 83.1801C27.1414 84.1123 28.3337 89.3074 24.6379 91.2115Z" fill="#371A45"/>
</g>
<path d="M19.759 92.9596C17.2604 92.9596 14.5387 92.3936 12.5619 90.9616C10.9126 89.7667 9.08658 87.466 9.75476 83.2925C9.78523 83.1015 9.88268 82.9276 10.0297 82.802C10.1766 82.6763 10.3636 82.6071 10.5569 82.6066C10.7501 82.6061 10.9372 82.6743 11.0848 82.7989C11.2324 82.9236 11.3309 83.0966 11.3626 83.2872C11.3772 83.3634 11.7725 85.2446 14.6798 86.2843C15.5243 84.2921 17.7651 81.6692 21.9465 82.351C24.9586 82.8425 27.1558 84.7443 27.5441 87.1962C27.8526 89.1554 26.883 90.9713 25.0124 91.9352C23.8034 92.5589 21.8601 92.9596 19.759 92.9596ZM11.3406 86.1777C11.5914 87.6141 12.3186 88.7741 13.5175 89.6424C16.6134 91.885 22.0373 91.6369 24.2662 90.4883C25.5105 89.8474 26.1346 88.712 25.9349 87.4514C25.7251 86.1265 24.4862 84.4168 21.6843 83.9598C17.1586 83.2206 16.0232 87.3293 15.9769 87.5043C15.9496 87.6082 15.902 87.7057 15.8369 87.7911C15.7717 87.8765 15.6903 87.9482 15.5974 88.002C15.5044 88.0558 15.4017 88.0907 15.2952 88.1047C15.1887 88.1187 15.0805 88.1115 14.9768 88.0835C13.2738 87.6229 12.1199 86.9062 11.3406 86.1777Z" fill="#371A45"/>
<path d="M76.0338 75.3663C75.7354 77.8918 74.6424 80.3424 73.0724 81.5466L65.6271 79.0506C65.6271 79.0506 63.8676 81.0833 59.4358 80.6316C55.004 80.1798 52.9699 75.6911 52.9699 75.6911C52.9699 75.6911 51.0791 79.617 48.7911 78.036C48.1674 77.6045 47.8655 77.0733 47.7677 76.518C47.639 75.7951 47.8492 75.0291 48.1362 74.3856C48.4834 73.622 48.9715 72.9308 49.5748 72.348L53.8171 68.1714C57.3929 63.4663 62.4008 66.8544 65.8634 68.8488H74.3343C75.8597 70.3602 76.3274 72.8981 76.0338 75.3663Z" fill="#F8F8F8"/>
<path d="M73.0721 82.3624C72.9841 82.3618 72.8967 82.3469 72.8134 82.3184L65.8177 79.9735C65.001 80.6223 62.9691 81.8106 59.3518 81.4421C56.0268 81.1032 53.9521 78.772 52.9485 77.2788C52.4029 78.021 51.5866 78.8655 50.5684 79.1357C49.8037 79.3384 49.0293 79.1886 48.3281 78.7042C46.844 77.6781 46.5121 76.0257 47.3928 74.0515C47.7816 73.1953 48.3279 72.4197 49.0033 71.7653L53.205 67.6302C56.9889 62.7135 62.1691 65.7446 65.6009 67.7523L66.083 68.0335H74.3331C74.5477 68.0334 74.7537 68.1182 74.9061 68.2693C76.3483 69.6964 77.0777 72.0629 76.908 74.7616C76.7123 77.8689 75.4011 80.7859 73.568 82.1923C73.426 82.3021 73.2516 82.3619 73.0721 82.3624ZM65.6269 78.2378C65.7149 78.2384 65.8023 78.2533 65.8856 78.2819L72.8936 80.6312C74.1859 79.4138 75.1287 77.0853 75.2812 74.6629C75.4134 72.586 74.9392 70.7882 73.9779 69.666H65.8627C65.72 69.6661 65.5798 69.6285 65.4563 69.5572C65.2359 69.4302 65.0089 69.2975 64.7766 69.1605C60.5846 66.7077 57.163 65.1139 54.4629 68.6655C54.4394 68.6967 54.4136 68.7262 54.3858 68.7537L50.1431 72.9289C49.613 73.4408 49.1837 74.0477 48.8777 74.718C48.0627 76.5445 48.9266 77.1421 49.2519 77.3669C49.6583 77.6481 49.9571 77.6137 50.1479 77.5644C51.0881 77.3176 51.9921 75.8375 52.2345 75.3386C52.3019 75.1993 52.4077 75.0821 52.5393 75.0008C52.6709 74.9194 52.823 74.8772 52.9778 74.8792C53.1325 74.8811 53.2835 74.9271 53.413 75.0117C53.5426 75.0964 53.6453 75.2162 53.7093 75.3571C53.7273 75.3963 55.6164 79.4266 59.5158 79.8241C63.4151 80.2217 64.9953 78.5371 65.0102 78.5204C65.0867 78.4317 65.1813 78.3605 65.2877 78.3118C65.3941 78.263 65.5098 78.2378 65.6269 78.2378Z" fill="#371A45"/>
<path d="M52.2548 75.2997L55.2837 71.485L53.682 76.0847C53.6463 76.1872 53.5908 76.2816 53.5187 76.3626C53.4465 76.4436 53.3591 76.5096 53.2615 76.5569C53.1638 76.6041 53.0578 76.6316 52.9495 76.6379C52.8412 76.6441 52.7328 76.629 52.6303 76.5934C52.0988 76.4197 51.9022 75.729 52.2548 75.2997Z" fill="#371A45"/>
<path d="M64.8833 78.7191L66.8037 76.7371L66.37 79.3851L64.8833 78.7191Z" fill="#371A45"/>
<g opacity="0.25">
<path d="M76.0337 75.3663C75.7353 77.8918 74.6423 80.3424 73.0723 81.5466L65.627 79.0506C65.627 79.0506 63.8675 81.0834 59.4357 80.6316C55.0039 80.1798 52.9698 75.6912 52.9698 75.6912C52.9698 75.6912 51.079 79.617 48.791 78.036C48.1673 77.6045 47.8654 77.0734 47.7676 76.518L48.0184 76.2672C48.0184 76.2672 49.7126 77.3964 51.5581 74.8736C53.3652 72.4022 55.7144 70.3285 55.8092 70.2456C55.7506 70.3902 53.9139 74.9802 57.6163 77.1307C61.3817 79.3146 65.9377 73.3287 65.9377 73.3287C65.9377 73.3287 68.6484 75.7004 75.1994 75.3619C75.4773 75.3462 75.756 75.3477 76.0337 75.3663Z" fill="#371A45"/>
</g>
<path d="M54.2896 101.296C56.6164 99.6207 60.328 97.9366 63.1224 99.3862C64.4125 100.162 65.5276 101.215 66.5003 102.345C67.4485 103.446 68.2703 104.649 68.9501 105.932C67.2549 104.13 65.424 102.489 63.2736 101.293C62.4652 100.852 61.6198 100.511 60.6872 100.493C58.7532 100.502 56.8416 101.491 55.2804 102.588C54.4055 103.234 53.4346 101.978 54.2896 101.296Z" fill="#371A45"/>
<path d="M66.2877 122.773C66.1031 122.773 65.9244 122.708 65.7824 122.59C65.6405 122.473 65.5442 122.309 65.5103 122.127C65.4764 121.946 65.507 121.758 65.5968 121.597C65.6866 121.436 65.83 121.311 66.0021 121.245C66.2097 121.164 66.5045 120.991 66.6632 120.418C67.4733 117.487 63.7542 109.722 60.947 106.117C58.031 102.373 55.6844 102.738 55.5861 102.755C55.4849 102.777 55.3804 102.778 55.2787 102.759C55.177 102.74 55.0801 102.701 54.9935 102.644C54.9069 102.588 54.8323 102.514 54.7741 102.429C54.7159 102.343 54.6752 102.247 54.6544 102.146C54.6121 101.939 54.6533 101.725 54.769 101.549C54.8846 101.373 55.0653 101.25 55.2714 101.207C55.4072 101.177 58.6212 100.554 62.197 105.146C64.8579 108.562 69.261 116.964 68.1891 120.84C67.9352 121.759 67.3772 122.408 66.5751 122.719C66.4835 122.755 66.386 122.773 66.2877 122.773Z" fill="#371A45"/>
<path d="M61.2562 99.1306C61.24 99.1461 61.2252 99.163 61.2121 99.1813C61.2082 99.1865 61.1954 99.2077 61.1993 99.2006C61.2262 99.1566 61.2915 99.0442 61.3188 98.9992C62.5004 96.9991 63.914 95.1466 65.4954 93.4457C67.6771 91.0528 70.7682 89.333 74.0121 89.017C74.8118 88.9646 75.6148 89.0069 76.4045 89.143C75.6138 89.2039 74.8434 89.3193 74.1025 89.5296C71.8987 90.1634 69.9761 91.4689 68.34 93.0415C67.7948 93.562 67.2355 94.0672 66.6929 94.5992C65.3477 95.9487 64.1965 97.4936 63.1669 99.0975C63.0743 99.2469 62.8046 99.6806 62.7177 99.8309L62.6433 99.957L62.6036 100.024C62.0028 101.089 60.4985 100.097 61.2531 99.1319L61.2562 99.1306Z" fill="#371A45"/>
<path d="M75.5641 113.279C75.4038 113.279 75.2487 113.222 75.1264 113.118C75.0042 113.014 74.9226 112.87 74.8964 112.712C73.5591 104.656 68.5252 98.1018 63.6743 98.1018C63.4975 98.0973 63.3296 98.024 63.2061 97.8974C63.0827 97.7708 63.0137 97.601 63.0137 97.4242C63.0137 97.2474 63.0827 97.0776 63.2061 96.951C63.3296 96.8244 63.4975 96.751 63.6743 96.7465C69.2516 96.7465 74.7681 103.662 76.2332 112.49C76.2626 112.667 76.2204 112.849 76.1158 112.995C76.0113 113.141 75.8529 113.24 75.6756 113.27C75.6388 113.276 75.6015 113.279 75.5641 113.279Z" fill="#371A45"/>
<path d="M74.1959 68.0471L78.7202 68.0969L74.4713 69.6524C73.2227 70.0186 72.8961 68.1185 74.1959 68.0471Z" fill="#371A45"/>
<path d="M81.6699 84.2582C77.5079 84.2582 73.0434 82.4189 72.7578 82.2994C72.5616 82.214 72.4069 82.0547 72.3272 81.8562C72.2475 81.6576 72.2491 81.4356 72.3317 81.2382C72.4144 81.0408 72.5714 80.8838 72.7688 80.8012C72.9662 80.7187 73.1882 80.7171 73.3868 80.7969C76.0754 81.9213 83.6216 84.1537 86.2049 81.0292C86.3434 80.8658 86.5407 80.7637 86.7541 80.7448C86.9675 80.7259 87.1797 80.7918 87.3448 80.9282C87.5099 81.0646 87.6147 81.2606 87.6363 81.4737C87.658 81.6868 87.5949 81.8998 87.4606 82.0667C86.0964 83.7169 83.927 84.2582 81.6699 84.2582Z" fill="#371A45"/>
<path d="M71.8183 68.7889L71.623 65.1227L73.3861 68.3433C73.4918 68.5378 73.5162 68.7662 73.454 68.9786C73.3918 69.191 73.2481 69.3702 73.0542 69.4769C72.5323 69.7793 71.8381 69.3861 71.8201 68.7889H71.8183Z" fill="#371A45"/>
<path d="M43.8528 72.0166C43.9868 70.8236 44.1961 69.6403 44.4795 68.4738C44.7612 67.3256 45.12 66.1854 45.6255 65.1214C45.2597 66.8359 45.2412 68.5677 45.3302 70.2994C45.3633 70.8689 45.41 71.4546 45.4801 71.9968C45.5748 73.2049 43.7867 73.2309 43.8493 72.0166H43.8528Z" fill="#371A45"/>
<g opacity="0.25">
<path d="M86.8333 81.5484C90.355 93.529 88.8436 102.829 79.2276 107.814L70.3843 119.371C68.1805 122.25 64.1317 123.016 61.0667 121.078C58.3472 119.359 56.0496 116.15 54.6356 112.765C54.9001 112.978 55.1666 113.21 55.4352 113.461C64.6201 122.045 63.6733 109.621 63.6733 109.621C72.492 117.24 67.9222 104.704 67.8499 104.5L71.1142 107.062C71.1142 107.062 71.8864 105.029 78.7194 99.0429C85.5525 93.0565 81.5434 85.9418 81.5434 85.9418C76.6867 86.9018 71.1142 83.344 71.1142 83.4502C71.1142 83.5565 66.6912 82.8922 66.5219 83.0051C66.3527 83.1179 66.4836 79.3393 66.4836 79.3393L73.4744 81.7066L76.0339 75.3663C77.8816 75.3394 81.9519 75.3223 81.9519 75.3223C86.594 65.6089 77.9878 60.2894 77.9878 60.2894C67.4885 64.909 54.6065 61.5433 54.1274 61.4076L61.812 55.2952C66.5242 55.0748 70.353 55.356 70.353 55.356L76.9802 55.006C76.9802 55.006 82.6162 56.6122 85.627 61.9563C88.6378 67.3005 89.544 76.7393 86.8333 81.5484Z" fill="#371A45"/>
</g>
<g opacity="0.25">
<path d="M94.7394 54.205L94.6714 54.1779C94.694 54.1659 94.7394 54.205 94.7394 54.205Z" fill="#371A45"/>
</g>
<path d="M59.4444 61.3657C76.133 61.3657 89.6618 47.8369 89.6618 31.1483C89.6618 14.4597 76.133 0.930969 59.4444 0.930969C42.7558 0.930969 29.2271 14.4597 29.2271 31.1483C29.2271 47.8369 42.7558 61.3657 59.4444 61.3657Z" fill="#F8F8F8"/>
<g opacity="0.25">
<path d="M87.6924 41.8781C81.7651 57.4809 64.3143 65.3237 48.7137 59.3968C43.9103 57.5807 39.6521 54.5643 36.3452 50.6355C38.4622 52.1474 40.7656 53.3796 43.1981 54.3017C58.8009 60.2281 76.2495 52.3857 82.1764 36.7852C86.2119 26.1607 83.8618 14.6786 77.0253 6.56207C87.9282 14.3471 92.6734 28.7669 87.6924 41.8781Z" fill="#371A45"/>
</g>
<path d="M31.3887 42.7323C33.0795 46.6237 35.9131 50.8052 40.5811 54.7649C53.9537 63.6721 71.9665 60.2303 79.5841 41.7132L78.3808 26.3679C77.74 24.0023 76.43 21.7589 74.6344 19.7261C63.6159 7.26946 34.3312 2.72967 29.5305 26.8553C29.5305 26.8553 27.6229 34.0674 31.3887 42.7323Z" fill="#371A45"/>
<g opacity="0.7">
<path d="M31.3887 42.7323C33.0794 46.6237 35.913 50.8052 40.5811 54.7649C53.9536 63.6722 71.9665 60.2303 79.584 41.7133L78.3808 26.3679C77.7399 24.0024 76.43 21.7589 74.6343 19.7261C78.6748 40.7 52.9134 62.0304 31.5764 42.8253L31.3887 42.7323Z" fill="#111A28"/>
</g>
<path d="M58.2054 62.044C57.6221 62.044 57.0273 62.0243 56.4208 61.9849C56.3195 61.9803 56.2201 61.9556 56.1285 61.9121C56.0369 61.8687 55.9549 61.8074 55.8872 61.7318C55.8196 61.6563 55.7677 61.568 55.7346 61.4721C55.7015 61.3763 55.6878 61.2748 55.6944 61.1736C55.701 61.0724 55.7277 60.9736 55.773 60.8828C55.8183 60.7921 55.8812 60.7113 55.9581 60.6452C56.0349 60.579 56.1242 60.5289 56.2207 60.4977C56.3172 60.4665 56.4189 60.4549 56.52 60.4634C64.1715 60.9637 70.7251 58.1821 76.0014 52.1975C79.6085 48.1077 81.3588 43.8324 81.6651 43.0395L81.0225 24.1222C78.0619 17.4069 72.0703 12.0049 64.1367 8.90026C56.0148 5.72064 47.2081 5.56594 40.5787 8.48551C40.3944 8.56226 40.1875 8.56371 40.0022 8.48956C39.8169 8.41541 39.668 8.27156 39.5876 8.0889C39.5072 7.90624 39.5016 7.69933 39.572 7.51258C39.6424 7.32584 39.7833 7.17414 39.9643 7.09007C46.9569 4.01007 56.2013 4.15596 64.6907 7.48014C73.0571 10.7554 79.374 16.4976 82.4787 23.648C82.517 23.7357 82.5383 23.8299 82.5413 23.9256L83.1941 43.1426C83.1974 43.2384 83.1825 43.334 83.15 43.4243C83.0777 43.627 81.3341 48.4431 77.1804 53.1689C73.5534 57.2953 67.3828 62.0431 58.2054 62.044Z" fill="#371A45"/>
<path d="M55.5771 60.2012C50.2959 60.2012 44.9346 58.5581 40.1673 55.3824C40.0067 55.2712 39.8962 55.1013 39.8596 54.9095C39.823 54.7176 39.8631 54.519 39.9715 54.3564C40.0798 54.1939 40.2476 54.0803 40.4388 54.0402C40.63 54.0002 40.8293 54.0367 40.9938 54.1421C47.5945 58.5391 55.3818 59.8385 62.359 57.7078C69.5671 55.5041 75.4102 49.7861 78.8274 41.5916L77.6426 26.4957C76.4526 22.1851 72.7062 17.945 67.3576 14.8597C62.0183 11.7771 55.6211 10.1225 49.8076 10.3173C43.7066 10.5231 33.0544 12.9618 30.26 27.0021C30.2214 27.196 30.1074 27.3666 29.9431 27.4764C29.7787 27.5862 29.5774 27.6262 29.3836 27.5877C29.1897 27.5491 29.0191 27.4351 28.9093 27.2707C28.7995 27.1063 28.7594 26.9051 28.798 26.7112C30.9859 15.7214 38.6269 9.20306 49.7573 8.82754C62.7777 8.39075 76.4843 16.4967 79.0993 26.1739C79.1113 26.2185 79.1191 26.2641 79.1227 26.3101L80.3273 41.6537C80.3363 41.7704 80.3179 41.8875 80.2735 41.9958C76.6928 50.6985 70.4852 56.7849 62.794 59.1341C60.4545 59.8454 58.0223 60.2051 55.5771 60.2012Z" fill="#371A45"/>
<path d="M59.4574 62.2975C55.6741 62.2937 51.9233 61.6004 48.3887 60.2515C32.3425 54.1549 24.2454 36.139 30.3415 20.0928C33.2945 12.3188 39.0984 6.16055 46.6834 2.75174C54.2684 -0.657072 62.7269 -0.90654 70.5005 2.04653C86.548 8.14307 94.6438 26.1581 88.5477 42.2056C85.5947 49.9792 79.7908 56.1375 72.2058 59.5463C68.1991 61.3557 63.8537 62.2934 59.4574 62.2975ZM59.4327 1.83012C55.2945 1.83432 51.2044 2.71739 47.4331 4.42088C40.2929 7.62915 34.8315 13.4255 32.0507 20.7425C26.313 35.8468 33.9332 52.8031 49.0375 58.5409C56.354 61.3203 64.3154 61.0841 71.4543 57.8758C78.5932 54.6675 84.056 48.8711 86.8367 41.5546L87.6918 41.8794L86.8367 41.5546C92.5745 26.4503 84.9542 9.49354 69.85 3.75578C66.5234 2.4864 62.9933 1.83385 59.4327 1.83012Z" fill="#371A45"/>
<path d="M90.6451 33.4411C90.7165 38.8598 88.0252 43.2259 83.8098 43.2806C79.5944 43.3352 76.1204 38.9881 76.049 33.5694C75.9776 28.1507 79.337 23.7128 83.552 23.6577C87.7669 23.6026 90.5741 28.0225 90.6451 33.4411Z" fill="#F8F8F8"/>
<g opacity="0.25">
<path d="M83.8092 43.2792C79.5951 43.3339 76.1202 38.9871 76.0519 33.5689C76.0294 31.85 76.3503 30.2302 76.9369 28.8189C77.6355 33.3944 80.8019 36.8323 84.551 36.7843C87.3397 36.7463 89.4615 34.826 90.5581 31.9606C90.6114 32.4454 90.6414 32.9382 90.6462 33.4398C90.7154 38.8598 88.0264 43.2246 83.8092 43.2792Z" fill="#371A45"/>
</g>
<path d="M83.7292 44.196C81.4372 44.196 79.285 43.0809 77.6608 41.049C76.0684 39.0564 75.1715 36.4044 75.134 33.5813C75.0564 27.6668 78.8271 22.8048 83.5401 22.7427C85.8386 22.7189 87.93 23.8596 89.4021 25.9734C90.7553 27.9149 91.5213 30.563 91.5592 33.4293C91.6403 39.6073 88.3858 44.1352 83.8213 44.1952L83.7292 44.196ZM83.6309 24.5718H83.5643C79.862 24.6207 76.8992 28.651 76.964 33.5566C76.9957 35.9751 77.7507 38.2286 79.0902 39.9062C80.3759 41.5149 82.0477 42.3885 83.7979 42.3651C87.3028 42.3211 89.7975 38.5711 89.7301 33.4531C89.6975 30.9487 89.0482 28.6638 87.9018 27.018C87.1212 25.8994 85.7487 24.5718 83.6309 24.5718Z" fill="#371A45"/>
<path d="M86.3585 42.6415C82.6698 42.6415 79.6251 38.5222 79.5568 33.4165C79.5255 30.9765 80.1668 28.6647 81.3639 26.9065C82.6165 25.0642 84.3271 24.0367 86.1809 24.0129C86.5578 24.0087 86.9339 24.048 87.3017 24.1302C87.3339 24.1373 87.3655 24.1464 87.3965 24.1575C87.5807 24.2238 87.7324 24.3584 87.8201 24.5335C87.9078 24.7085 87.9248 24.9106 87.8676 25.0978C87.8103 25.2851 87.6833 25.4431 87.5127 25.5393C87.3422 25.6354 87.1411 25.6622 86.9513 25.6142C86.7043 25.5609 86.4521 25.5354 86.1994 25.538C84.8591 25.5547 83.5892 26.3454 82.6249 27.7638C81.6036 29.2659 81.0558 31.2665 81.0822 33.3962C81.1395 37.668 83.5015 41.1165 86.3572 41.1165H86.4052C86.7869 41.1129 87.1651 41.0433 87.523 40.9107C87.6172 40.8737 87.7178 40.8558 87.819 40.8581C87.9202 40.8604 88.0199 40.8828 88.1124 40.924C88.2048 40.9653 88.2881 41.0245 88.3574 41.0983C88.4267 41.172 88.4807 41.2589 88.5161 41.3537C88.5515 41.4485 88.5676 41.5494 88.5636 41.6506C88.5596 41.7517 88.5355 41.8511 88.4927 41.9428C88.4499 42.0345 88.3893 42.1168 88.3144 42.1848C88.2394 42.2529 88.1517 42.3054 88.0563 42.3392C87.5341 42.5329 86.9824 42.635 86.4255 42.6411L86.3585 42.6415Z" fill="#371A45"/>
<g opacity="0.5">
<path d="M51.7921 15.0396C42.8324 20.6244 37.6253 28.3645 36.7006 38.5632C36.6265 39.3808 35.4691 39.4927 35.2417 38.7042C31.5093 25.7685 33.3433 14.586 51.3562 13.6605C52.1284 13.6195 52.4479 14.6301 51.7921 15.0396Z" fill="#CEB7FF"/>
</g>
<g opacity="0.5">
<path d="M69.2239 33.9352L69.0639 33.9485C68.3579 34.0059 67.6558 33.7985 67.0942 33.3667C66.5327 32.9349 66.152 32.3096 66.0263 31.6124C65.9969 31.4473 65.966 31.2873 65.9337 31.1325C65.6199 29.5947 66.5948 28.0912 68.1335 27.7748L68.2543 27.7501C68.9489 27.6079 69.6715 27.7295 70.2813 28.0911C70.8912 28.4527 71.3445 29.0285 71.5529 29.7062C71.617 29.9119 71.6773 30.1175 71.734 30.3232C71.8475 30.7279 71.8702 31.1527 71.8003 31.5672C71.7305 31.9816 71.5699 32.3755 71.33 32.7207C71.0902 33.0658 70.777 33.3537 70.4129 33.5636C70.0488 33.7736 69.6428 33.9005 69.2239 33.9352Z" fill="#CEB7FF"/>
</g>
<g opacity="0.5">
<path d="M63.3856 51.2327C63.0577 51.0368 62.7725 50.7768 62.5472 50.4683C62.3218 50.1597 62.1609 49.809 62.074 49.437C61.9872 49.0649 61.9761 48.6792 62.0415 48.3028C62.1069 47.9264 62.2475 47.567 62.4547 47.2461C63.8171 45.1499 64.7825 42.8212 65.3029 40.376C65.6344 38.8232 67.1413 37.8196 68.6937 38.1528L69.0934 38.2383C70.6599 38.5742 71.6529 40.1384 71.2668 41.6934C70.3046 45.5655 68.4966 48.601 67.1598 50.4557C66.7424 51.0344 66.123 51.4354 65.4241 51.5793C64.7252 51.7232 63.9977 51.5995 63.3856 51.2327Z" fill="#CEB7FF"/>
</g>
<g opacity="0.25">
<path d="M48.3569 96.4225C48.3569 96.4225 58.3709 99.2315 66.1635 93.4338L62.555 98.8172L61.2693 99.667C58.5534 99.8186 56.35 100.436 54.9727 101.805C52.2153 100.795 49.934 99.1085 48.3569 96.4225Z" fill="#371A45"/>
</g>
<g opacity="0.25">
<path d="M45.1593 66.8443C45.1593 66.8443 41.7774 69.8635 40.0024 75.8979L42.3129 80.8969L43.1226 80.35C43.1226 80.35 43.499 74.111 43.4051 73.9982C43.3112 73.8854 44.4109 72.7275 44.6656 71.0615C44.9204 69.3954 44.9019 68.3693 44.9019 68.3693" fill="#371A45"/>
</g>
<path d="M27.4321 101.455L28.7984 104.577L26.1389 102.446C26.0526 102.377 25.9807 102.292 25.9274 102.195C25.874 102.099 25.8403 101.993 25.828 101.883C25.8157 101.774 25.8251 101.663 25.8558 101.557C25.8865 101.451 25.9377 101.352 26.0067 101.266C26.3804 100.775 27.1967 100.889 27.4294 101.455H27.4321Z" fill="#371A45"/>
<path d="M82.465 58.7088C82.3123 58.7087 82.1626 58.6655 82.0332 58.5844C81.9038 58.5033 81.7998 58.3873 81.7331 58.2499C81.6664 58.1125 81.6397 57.9591 81.656 57.8072C81.6724 57.6553 81.7311 57.5111 81.8255 57.391C85.6892 52.4809 91.6367 53.3325 91.8884 53.3708C92.0988 53.4069 92.2865 53.5242 92.4113 53.6973C92.5361 53.8704 92.588 54.0856 92.5558 54.2966C92.5235 54.5076 92.4098 54.6975 92.239 54.8254C92.0682 54.9534 91.854 55.0092 91.6425 54.9809C91.4261 54.9487 86.3697 54.2501 83.1055 58.3981C83.0293 58.4951 82.932 58.5735 82.8211 58.6273C82.7101 58.6811 82.5884 58.709 82.465 58.7088Z" fill="#371A45"/>
<g opacity="0.25">
<path d="M82.7872 51.0882C82.7872 51.0882 78.1548 53.221 84.6489 60.292C82.3156 57.9031 79.8945 56.0427 77.3174 55.1193L80.9034 50.8638" fill="#371A45"/>
</g>
<path d="M24.4912 65.3113C24.5928 65.5326 24.6802 65.76 24.753 65.9923C23.8054 66.7654 21.9321 67.8505 19.69 68.8757C17.4479 69.9009 15.4032 70.6092 14.1982 70.8208C14.0702 70.6137 13.9553 70.3988 13.8544 70.1773L13.8399 70.146C13.7955 70.047 13.7539 69.9474 13.7151 69.8472C13.6254 69.6157 13.5506 69.3786 13.4912 69.1376C13.4912 69.1279 13.4864 69.1182 13.4842 69.1085C13.169 67.7946 13.3183 66.4122 13.9067 65.196C14.4952 63.9798 15.4865 63.0048 16.7123 62.4365C17.9381 61.8683 19.3228 61.7419 20.6312 62.0788C21.9396 62.4158 23.0911 63.1952 23.89 64.2848C23.9076 64.3086 23.9248 64.3324 23.9416 64.3567C24.0851 64.5592 24.2155 64.7708 24.3321 64.99C24.3761 65.0725 24.4202 65.1562 24.4586 65.2413C24.4696 65.2646 24.4806 65.2875 24.4912 65.3113Z" fill="#CEB7FF"/>
<path d="M25.0005 68.2495C24.9234 69.136 24.645 69.9933 24.1866 70.7561C23.7281 71.5189 23.1017 72.167 22.355 72.6511C21.6082 73.1353 20.7609 73.4427 19.8775 73.5499C18.994 73.6572 18.0977 73.5615 17.2569 73.2701C16.7172 73.0829 16.2078 72.818 15.7446 72.4838C17.1775 72.1171 18.833 71.5278 20.5453 70.7446C22.2577 69.9613 23.7858 69.0939 25.0005 68.2495Z" fill="#CEB7FF"/>
<path d="M24.7533 65.9919C23.8057 66.7654 21.9324 67.851 19.6907 68.8757C17.4491 69.9005 15.4031 70.6092 14.198 70.8208C14.0703 70.6135 13.9555 70.3986 13.8543 70.1773L13.8402 70.146C13.7961 70.0468 13.752 69.9472 13.7154 69.8472C13.6258 69.6156 13.551 69.3786 13.4915 69.1375C13.4889 69.1278 13.4867 69.1181 13.4845 69.1084C13.2081 67.9538 13.2895 66.7423 13.7177 65.635C14.146 64.5276 14.9009 63.5767 15.8822 62.9083C15.2206 63.938 14.897 65.1485 14.9566 66.3709C14.9747 66.7309 15.0264 67.0884 15.1109 67.4389C15.1109 67.4486 15.1157 67.4583 15.1179 67.468C15.1201 67.4776 15.1254 67.4966 15.1311 67.5151C15.4291 68.52 16.5111 68.9405 17.5553 68.8458C19.5449 68.6655 23.8537 66.3365 24.7705 65.7988C24.8348 65.9535 24.7039 65.8354 24.7533 65.9919Z" fill="#CEB7FF"/>
<path d="M20.5453 70.7446C22.2577 69.9613 23.7858 69.0939 25.0005 68.2495C24.9798 68.4875 24.9443 68.7241 24.8943 68.9577C23.9599 69.6427 22.4657 70.4903 20.7247 71.2867C19.0574 72.0496 17.5024 72.609 16.3815 72.884C16.1608 72.7645 15.948 72.6308 15.7446 72.4838C17.1775 72.1171 18.833 71.5278 20.5453 70.7446Z" fill="#CEB7FF"/>
<path d="M24.4585 65.2413C24.4696 65.2646 24.4806 65.2853 24.4912 65.3114C24.5927 65.5326 24.6802 65.76 24.753 65.9923C23.8053 66.7654 21.9321 67.8505 19.69 68.8757C17.4479 69.9009 15.4032 70.6092 14.1982 70.8208C14.0701 70.6138 13.9553 70.3988 13.8544 70.1773L13.8398 70.146C14.9832 70.0138 17.0666 69.3284 19.3493 68.2838C21.7245 67.1978 23.6643 66.0223 24.4585 65.2413Z" fill="#CEB7FF"/>
<path d="M13.3208 68.2375L13.3393 67.8435C14.1366 67.8814 16.2188 67.2101 18.4027 66.2127C21.008 65.0226 22.6891 63.8815 23.0033 63.372L23.3387 63.5792C22.9231 64.2531 21.0054 65.4555 18.5667 66.5715C16.2959 67.609 14.1878 68.2785 13.3208 68.2375Z" fill="#CEB7FF"/>
<path d="M13.6039 66.2466L13.5444 65.857C14.4401 65.7199 15.9924 65.1796 17.595 64.4466C19.2743 63.6784 20.7244 62.833 21.3855 62.2402L21.6499 62.5328C20.9641 63.1499 19.4735 64.0217 17.7603 64.8054C16.1255 65.552 14.5357 66.1047 13.6039 66.2466Z" fill="#CEB7FF"/>
<path d="M13.4844 69.3054V68.9114C14.3994 68.9114 16.5507 68.2088 18.8378 67.1625C21.2373 66.065 23.2489 64.834 23.7302 64.1693L24.0497 64.4003C23.5244 65.1262 21.496 66.3801 19.0022 67.5213C16.6314 68.6055 14.4655 69.3059 13.4844 69.3054Z" fill="#CEB7FF"/>
<path d="M17.264 73.3684L17.2565 73.2705L17.2124 73.1824L17.2305 73.1727H17.2512C18.0419 73.1123 19.548 72.6182 21.0858 71.9139C22.6346 71.2056 23.9555 70.4153 24.5342 69.8467L24.6722 69.9878C24.0785 70.5691 22.7355 71.3757 21.1682 72.0928C19.5841 72.8166 18.0886 73.3054 17.264 73.3684Z" fill="#CEB7FF"/>
<path d="M25.0005 68.2495C24.9108 69.2802 24.5493 70.2688 23.953 71.1143C23.3566 71.9598 22.5467 72.632 21.6059 73.0625C20.665 73.4929 19.6268 73.6661 18.5971 73.5645C17.5675 73.4628 16.5832 73.0899 15.7446 72.4838C17.1775 72.1171 18.833 71.5278 20.5453 70.7446C22.2577 69.9613 23.7858 69.0939 25.0005 68.2495Z" fill="#CEB7FF"/>
<path d="M27.8531 64.6846C28.2097 65.4634 27.0514 66.8236 25.0001 68.2494C23.7854 69.0939 22.2573 69.9613 20.545 70.7445C18.8326 71.5278 17.1772 72.1171 15.7443 72.4838C13.3241 73.1039 11.5377 73.0902 11.1811 72.3114C10.8576 71.6036 11.7827 70.4162 13.4911 69.138C13.5505 69.3791 13.6253 69.6161 13.715 69.8476C13.243 70.2372 13.0098 70.5458 13.0927 70.7243C13.1755 70.9028 13.5744 70.9305 14.1981 70.8212C15.4031 70.6097 17.45 69.9009 19.6899 68.8762C21.9298 67.8514 23.8052 66.7658 24.7529 65.9927C25.2434 65.5921 25.4854 65.2752 25.4021 65.0932C25.3188 64.9111 24.9353 64.8882 24.3319 64.9905C24.2154 64.7712 24.085 64.5597 23.9414 64.3571C26.0271 63.9009 27.5296 63.9767 27.8531 64.6846Z" fill="#CEB7FF"/>
<path d="M13.6789 69.7524C13.6908 69.7841 13.7027 69.8159 13.7151 69.8476C13.243 70.2368 13.0098 70.5449 13.0927 70.7238C13.1756 70.9028 13.5749 70.9301 14.1981 70.8208C14.9972 70.6806 16.1674 70.3214 17.5188 69.796C17.4969 69.9056 17.4969 70.0184 17.5188 70.1279C16.9969 70.324 16.4914 70.4968 16.0118 70.6445C13.9266 71.2853 12.8384 71.2765 12.7115 70.9971C12.637 70.8336 12.8534 70.4214 13.6789 69.7524Z" fill="#CEB7FF"/>
<path d="M13.5221 69.4686L13.5719 69.5307C13.2175 69.7994 12.8835 70.0941 12.5728 70.4122C12.7583 70.142 13.0743 69.8282 13.5221 69.4686Z" fill="#CEB7FF"/>
<path d="M13.6239 69.5931L13.5737 69.5304C13.5808 69.5242 13.5893 69.5184 13.5977 69.5122L13.6239 69.5931Z" fill="#CEB7FF"/>
<path d="M12.5748 70.414C12.3822 70.697 12.3328 70.9337 12.4223 71.1298C12.5118 71.3259 12.715 71.4269 12.9992 71.4718C13.7406 71.5895 15.0166 71.2845 16.1061 70.9495C16.5993 70.7983 17.1199 70.6194 17.6558 70.418C17.759 70.5502 17.9124 70.6498 18.1107 70.7265C17.3173 71.0293 16.5487 71.2854 15.828 71.4868C13.2593 72.2052 12.1433 72.0122 11.9674 71.6292C11.87 71.415 12.0106 71.0068 12.5748 70.414Z" fill="#CEB7FF"/>
<path d="M20.4421 70.7926C18.7672 71.5525 17.1501 72.1246 15.7463 72.4838C13.3265 73.1039 11.5397 73.0903 11.1835 72.311C10.86 71.6058 11.7852 70.4158 13.4935 69.1376C13.5112 69.2084 13.5301 69.2791 13.5504 69.3496L13.453 69.2222C12.4613 69.9812 11.3484 71.0377 11.6798 71.7601C11.8077 72.0395 12.1105 72.1907 12.5111 72.2542C13.4543 72.4027 14.9353 72.0673 15.9159 71.7931C16.8466 71.5285 17.7627 71.2153 18.6605 70.8548C19.133 70.9147 19.7369 70.8927 20.4421 70.7926Z" fill="#CEB7FF"/>
<path d="M17.6555 70.4179C17.1191 70.6194 16.5977 70.7983 16.1058 70.9495C15.0163 71.2845 13.7403 71.5895 12.999 71.4718C12.7147 71.4277 12.5093 71.3202 12.422 71.1298C12.3347 70.9394 12.3819 70.6969 12.5745 70.414C12.8853 70.0958 13.2193 69.8012 13.5737 69.5325L13.6235 69.5946C13.6416 69.648 13.6601 69.7008 13.679 69.7542C12.8535 70.4232 12.6371 70.8353 12.712 70.9984C12.8398 71.2783 13.9272 71.2871 16.0124 70.6458C16.4919 70.4982 16.9975 70.3254 17.5193 70.1293C17.5295 70.1798 17.5455 70.2291 17.567 70.276C17.5906 70.3267 17.6204 70.3744 17.6555 70.4179Z" fill="#CEB7FF"/>
<path d="M13.5739 69.5307C13.2195 69.7994 12.8855 70.0941 12.5747 70.4122C12.7585 70.1403 13.0745 69.8265 13.5241 69.4668L13.5739 69.5307Z" fill="#CEB7FF"/>
<path d="M13.6235 69.5924L13.7231 69.7167C13.7082 69.7282 13.6936 69.7401 13.6791 69.752C13.6601 69.6991 13.6416 69.6462 13.6235 69.5924Z" fill="#CEB7FF"/>
<path d="M23.6038 67.5208C22.5583 68.1753 21.2973 68.8462 19.957 69.4602C19.1777 69.8167 18.4011 70.1407 17.6558 70.4197C17.6207 70.3757 17.5911 70.3276 17.5676 70.2764C17.5462 70.2295 17.5302 70.1802 17.52 70.1297C18.2653 69.8515 19.0437 69.5276 19.8247 69.1706C21.1527 68.5628 22.401 67.899 23.4341 67.2511C25.2826 66.0923 25.9865 65.2637 25.8582 64.9847C25.7816 64.8177 25.3139 64.7119 24.2274 64.9133L24.1834 64.6775L24.1688 64.5995C24.7374 64.4937 25.1826 64.4598 25.5092 64.4986C25.8463 64.5391 26.057 64.6568 26.1465 64.8512C26.4643 65.5396 24.9379 66.6834 23.6038 67.5208Z" fill="#CEB7FF"/>
<path d="M18.6585 70.8547C17.7607 71.2153 16.8446 71.5285 15.9139 71.7931C14.9328 72.0672 13.4523 72.4027 12.5091 72.2541C12.1084 72.1907 11.8039 72.0395 11.6778 71.76C11.3464 71.0376 12.4593 69.9812 13.451 69.2222L13.5484 69.3495C13.5643 69.4042 13.5801 69.4589 13.5978 69.5126C13.5894 69.5188 13.581 69.5245 13.574 69.5307L13.5242 69.4685C13.0746 69.8282 12.7586 70.142 12.5748 70.414C12.0106 71.0068 11.8696 71.4149 11.9674 71.6278C12.1437 72.0108 13.2593 72.2039 15.828 71.4855C16.5486 71.284 17.3177 71.0279 18.1107 70.7251C18.2876 70.7897 18.4715 70.8332 18.6585 70.8547Z" fill="#CEB7FF"/>
<path d="M13.5221 69.4686L13.5719 69.5307C13.2175 69.7994 12.8835 70.0941 12.5728 70.4122C12.7583 70.142 13.0743 69.8282 13.5221 69.4686Z" fill="#CEB7FF"/>
<path d="M13.5483 69.3495L13.6449 69.4756L13.5977 69.5126C13.5801 69.4602 13.5664 69.4042 13.5483 69.3495Z" fill="#CEB7FF"/>
<path d="M24.365 67.9259C23.2027 68.6972 21.7892 69.4686 20.277 70.1623C19.734 70.4109 19.1918 70.6423 18.6567 70.8547C18.4697 70.8332 18.2858 70.7897 18.1089 70.7251C18.7758 70.4713 19.4598 70.1848 20.1447 69.8718C21.6433 69.1873 23.0396 68.4222 24.1891 67.6601C26.4123 66.1858 26.9958 65.2153 26.8209 64.8318C26.7235 64.6194 26.3241 64.4589 25.5096 64.4968C25.0639 64.5236 24.6207 64.5834 24.1838 64.6758L24.0957 64.6938L24.0309 64.3813C25.2531 64.127 26.7803 63.9763 27.1109 64.6987C27.5424 65.6379 25.5771 67.1242 24.365 67.9259Z" fill="#CEB7FF"/>
<path d="M27.8531 64.6846C28.2097 65.4634 27.0514 66.8236 25.0001 68.2494C23.7854 69.0939 22.2573 69.9613 20.545 70.7445C18.8326 71.5278 17.1772 72.1171 15.7443 72.4838C13.3241 73.1039 11.5377 73.0902 11.1811 72.3114C10.8576 71.6036 11.7827 70.4162 13.4911 69.138C13.5505 69.3791 13.6253 69.6161 13.715 69.8476C13.243 70.2372 13.0098 70.5458 13.0927 70.7243C13.1755 70.9028 13.5744 70.9305 14.1981 70.8212C15.4031 70.6097 17.45 69.9009 19.6899 68.8762C21.9298 67.8514 23.8052 66.7658 24.7529 65.9927C25.2434 65.5921 25.4854 65.2752 25.4021 65.0932C25.3188 64.9111 24.9353 64.8882 24.3319 64.9905C24.2154 64.7712 24.085 64.5597 23.9414 64.3571C26.0271 63.9009 27.5296 63.9767 27.8531 64.6846Z" fill="#CEB7FF"/>
<g opacity="0.41">
<path d="M24.7548 66.0122C24.6446 66.1003 24.5216 66.1964 24.3872 66.2943C24.3317 66.1403 24.2695 65.9878 24.2008 65.8368C24.1897 65.8134 24.1787 65.7927 24.1681 65.7671C24.1282 65.6816 24.086 65.5979 24.0416 65.5159C23.9251 65.2965 23.7947 65.0848 23.6511 64.8821C23.6344 64.8583 23.6168 64.8345 23.5996 64.8107C23.039 64.0469 22.3013 63.4306 21.4499 63.0149C20.5985 62.5992 19.6589 62.3964 18.7118 62.4241C17.7648 62.4518 16.8386 62.709 16.0129 63.1737C15.1872 63.6384 14.4867 64.2966 13.9717 65.0919C14.3856 64.2867 14.9806 63.5885 15.71 63.0522C16.4394 62.516 17.2833 62.1563 18.1753 62.0014C19.0673 61.8465 19.9831 61.9008 20.8506 62.1598C21.7181 62.4188 22.5136 62.8756 23.1747 63.4941C23.4393 63.7411 23.68 64.0125 23.8935 64.3047C23.9116 64.3285 23.9284 64.3527 23.9456 64.377C24.089 64.5794 24.2195 64.7908 24.3361 65.0099C24.3801 65.0923 24.4242 65.1765 24.4621 65.2611C24.4736 65.2845 24.4846 65.3078 24.4947 65.3316C24.5954 65.5529 24.6823 65.7802 24.7548 66.0122Z" fill="#CEB7FF"/>
</g>
<path d="M24.4913 65.3113C24.5928 65.5325 24.6803 65.76 24.7531 65.9923C23.8054 66.7654 21.9322 67.8505 19.6901 68.8757C17.448 69.9009 15.4033 70.6092 14.1983 70.8208C14.0702 70.6137 13.9554 70.3988 13.8545 70.1773C13.8042 70.068 13.7578 69.9579 13.7152 69.8471C13.1767 68.457 13.1894 66.9137 13.7507 65.5326C14.3121 64.1515 15.3797 63.037 16.7354 62.4167C18.0911 61.7965 19.6324 61.7175 21.0444 62.1958C22.4564 62.6741 23.6325 63.6736 24.3321 64.99C24.3883 65.0949 24.4413 65.202 24.4913 65.3113Z" fill="#CEB7FF"/>
<path d="M24.0169 65.5432C24.1088 65.7437 24.188 65.9498 24.254 66.1603C23.3963 66.8597 21.7007 67.8413 19.6737 68.7687C17.6466 69.696 15.795 70.3373 14.705 70.5286C14.5895 70.341 14.4856 70.1466 14.3939 69.9464L14.3811 69.9177C14.3405 69.8295 14.3029 69.7395 14.2682 69.6475C14.1872 69.4381 14.1195 69.2237 14.0655 69.0058C14.0655 68.997 14.0611 68.9881 14.0593 68.9793C13.7739 67.7907 13.9089 66.54 14.4412 65.4396C14.9735 64.3392 15.8704 63.457 16.9794 62.9429C18.0885 62.4288 19.3413 62.3146 20.525 62.6195C21.7087 62.9245 22.7504 63.6299 23.473 64.6158C23.4889 64.6374 23.5043 64.6599 23.5197 64.6811C23.6494 64.8643 23.7672 65.0557 23.8723 65.2541C23.912 65.3285 23.9503 65.4044 23.9865 65.481C23.9975 65.5009 24.0072 65.522 24.0169 65.5432Z" fill="#FFB200"/>
<path d="M24.4778 68.2014C24.4322 68.7188 24.311 69.2268 24.1181 69.7092C23.6133 70.9726 22.641 71.9929 21.4033 72.558C20.1656 73.1231 18.7578 73.1895 17.4724 72.7433C17.1989 72.6487 16.9336 72.5319 16.679 72.3943C16.4793 72.286 16.2867 72.165 16.1025 72.032C17.3988 71.7001 18.8965 71.1672 20.4457 70.4585C21.995 69.7497 23.379 68.9652 24.4778 68.2014Z" fill="#FF9100"/>
<path d="M24.254 66.1589C23.3967 66.8588 21.7007 67.8409 19.6737 68.7678C17.6466 69.6947 15.795 70.3364 14.705 70.5277C14.5895 70.3402 14.4856 70.1457 14.3939 69.9455C14.3895 69.9358 14.3855 69.9265 14.3811 69.9173C14.3405 69.8291 14.3031 69.7374 14.2682 69.6466C14.1871 69.4372 14.1194 69.2229 14.0655 69.0049C14.0655 68.9961 14.0611 68.9873 14.0593 68.9784C13.8095 67.9339 13.8832 66.838 14.2705 65.8362C14.6579 64.8345 15.3407 63.9742 16.2283 63.3694C15.6294 64.3007 15.3366 65.3959 15.3909 66.5018C15.4071 66.8275 15.4537 67.151 15.5301 67.468L15.5367 67.4944C15.5394 67.5059 15.5434 67.52 15.5482 67.5385C15.8179 68.4478 16.7969 68.8281 17.7414 68.7426C19.5415 68.5796 23.4395 66.4723 24.2686 65.9862C24.3276 66.1241 24.2091 66.0174 24.254 66.1589Z" fill="#FF9100"/>
<path d="M20.4472 70.4585C21.996 69.7497 23.3787 68.9652 24.4775 68.2014C24.4588 68.4168 24.4267 68.6308 24.3814 68.8422C23.536 69.4619 22.1842 70.2284 20.6094 70.949C19.1007 71.6388 17.6943 72.1466 16.6805 72.3943C16.4808 72.286 16.2882 72.165 16.104 72.032C17.4007 71.7001 18.8993 71.1672 20.4472 70.4585Z" fill="#D66B09"/>
<path d="M23.9876 65.4797C23.9978 65.5009 24.0075 65.5238 24.0172 65.5432C24.1091 65.7437 24.1883 65.9498 24.2543 66.1603C23.3966 66.8597 21.701 67.8413 19.6739 68.7687C17.6469 69.696 15.7953 70.3373 14.7053 70.5286C14.5898 70.3411 14.4859 70.1466 14.3941 69.9464L14.3813 69.9177C15.4154 69.7991 17.3005 69.1781 19.3667 68.2331C21.5145 67.2498 23.2692 66.1858 23.9876 65.4797Z" fill="#D66B09"/>
<path d="M13.9111 68.1904L13.9279 67.8343C14.6494 67.8686 16.5328 67.2613 18.5087 66.3573C20.8658 65.2787 22.3873 64.2483 22.6707 63.7872L22.9744 63.9746C22.5984 64.5846 20.8632 65.6723 18.655 66.6817C16.6028 67.6214 14.6957 68.2261 13.9111 68.1904Z" fill="#D66B09"/>
<path d="M14.168 66.3894L14.1138 66.0368C14.9243 65.913 16.3286 65.4242 17.7787 64.7608C19.2979 64.0658 20.6114 63.3006 21.2069 62.7642L21.4457 63.0287C20.8252 63.588 19.4769 64.3756 17.9268 65.0844C16.4489 65.7609 15.0085 66.2607 14.168 66.3894Z" fill="#D66B09"/>
<path d="M14.0596 69.1569V68.799C14.8873 68.799 16.8332 68.1639 18.9026 67.2172C21.0733 66.2241 22.8932 65.1108 23.3287 64.5092L23.6178 64.7185C23.1422 65.3748 21.3074 66.5093 19.0511 67.5394C16.9064 68.5236 14.9473 69.1574 14.0596 69.1569Z" fill="#D66B09"/>
<path d="M17.4787 72.8324L17.472 72.7443L17.4302 72.6654L17.4465 72.6566H17.465C18.1803 72.6023 19.5427 72.155 20.9359 71.5176C22.3367 70.8768 23.532 70.1605 24.0556 69.6479L24.1804 69.7753C23.6431 70.3012 22.4283 71.031 21.0104 71.6798C19.578 72.333 18.2249 72.7756 17.4787 72.8324Z" fill="#D66B09"/>
<path d="M19.2077 73.2547C18.0469 73.2552 16.9155 72.8902 15.9739 72.2114L15.5913 71.935L16.0484 71.8178C17.3786 71.4775 18.8692 70.9363 20.3546 70.2575C21.8399 69.5787 23.223 68.803 24.3509 68.0198L24.7383 67.7505L24.6973 68.2208C24.5783 69.5946 23.9484 70.8739 22.932 71.8059C21.9156 72.7379 20.5867 73.2548 19.2077 73.2547ZM16.6381 72.1171C17.3411 72.5295 18.1331 72.7664 18.9471 72.8077C19.7611 72.849 20.573 72.6936 21.3142 72.3545C22.0553 72.0154 22.7038 71.5027 23.2047 70.8598C23.7056 70.2168 24.0442 69.4626 24.1918 68.6611C23.1256 69.3632 21.873 70.049 20.5388 70.6595C19.2046 71.2699 17.8665 71.7697 16.6385 72.1171H16.6381Z" fill="#371A45"/>
<path d="M27.0585 64.9759C27.3811 65.6812 26.3334 66.9113 24.4774 68.2014C23.3786 68.9652 21.9959 69.7498 20.4471 70.4585C18.8983 71.1673 17.4002 71.7001 16.1039 72.032C13.9142 72.5931 12.2984 72.5808 11.9758 71.876C11.6831 71.236 12.5201 70.1628 14.0654 69.0049C14.1194 69.2229 14.1871 69.4372 14.2682 69.6466C13.8411 69.9992 13.6313 70.2782 13.7049 70.44C13.7785 70.6018 14.1408 70.6264 14.7049 70.5282C15.7949 70.3369 17.647 69.6956 19.6736 68.7682C21.7002 67.8409 23.3962 66.8593 24.2539 66.1598C24.6973 65.7975 24.9151 65.5106 24.8415 65.3457C24.7679 65.1809 24.4188 65.1606 23.8718 65.2532C23.7667 65.0548 23.6489 64.8634 23.5192 64.6802C25.4065 64.2672 26.7658 64.336 27.0585 64.9759Z" fill="#FFD766"/>
<path d="M14.2359 69.5612C14.2465 69.5898 14.2575 69.6185 14.2685 69.6493C13.8414 70.0019 13.6312 70.2805 13.7052 70.4427C13.7793 70.6049 14.1416 70.6291 14.7053 70.5308C15.4281 70.4039 16.4868 70.0786 17.7095 69.6052C17.6899 69.7045 17.6899 69.8066 17.7095 69.9058C17.2374 70.0821 16.7799 70.2395 16.3462 70.373C14.4598 70.9526 13.476 70.946 13.3606 70.6917C13.2931 70.5392 13.4888 70.1654 14.2359 69.5612Z" fill="#FFAA39"/>
<path d="M14.0953 69.3041L14.1394 69.3606C13.8189 69.6042 13.5169 69.8713 13.2358 70.1596C13.4027 69.9137 13.6892 69.6285 14.0953 69.3041Z" fill="#FF9100"/>
<path d="M14.186 69.4167L14.1416 69.3603C14.1483 69.3545 14.1558 69.3491 14.1634 69.3438L14.186 69.4167Z" fill="#FF9100"/>
<path d="M13.2365 70.1597C13.0602 70.4153 13.0161 70.63 13.0981 70.8071C13.1801 70.9843 13.3626 71.076 13.6204 71.1157C14.2912 71.2219 15.4456 70.946 16.4311 70.6432C16.8772 70.5061 17.3474 70.3443 17.8332 70.1623C17.9426 70.2904 18.0847 70.3863 18.2444 70.44C17.5273 70.7141 16.8313 70.946 16.1794 71.128C13.8553 71.7781 12.846 71.6036 12.6869 71.2567C12.5987 71.065 12.7261 70.6943 13.2365 70.1597Z" fill="#FFAA39"/>
<path d="M20.3537 70.5017C18.8388 71.1893 17.376 71.7072 16.1057 72.032C13.9165 72.5931 12.3002 72.5808 11.9776 71.8755C11.6854 71.236 12.5224 70.1628 14.0677 69.0045C14.0835 69.0688 14.1011 69.1327 14.1192 69.1966L14.0311 69.0811C13.1341 69.7678 12.127 70.7238 12.4267 71.3775C12.5426 71.6305 12.8163 71.7667 13.1791 71.8244C14.0319 71.9588 15.3714 71.6552 16.2595 71.407C17.1014 71.1676 17.9301 70.8842 18.7423 70.5581C19.1694 70.6132 19.7164 70.5925 20.3537 70.5017Z" fill="#FFAA39"/>
<path d="M17.8333 70.1654C17.3485 70.3474 16.8773 70.5092 16.4313 70.6462C15.4458 70.949 14.2914 71.225 13.6206 71.1187C13.3632 71.0782 13.1776 70.9817 13.0983 70.8102C13.019 70.6388 13.0621 70.4184 13.2367 70.1627C13.5177 69.8744 13.8197 69.6073 14.1402 69.3636L14.1843 69.4196C14.2002 69.4681 14.2174 69.5161 14.2346 69.5642C13.4853 70.1693 13.2918 70.5422 13.3597 70.6899C13.4751 70.9429 14.4589 70.9508 16.3453 70.3712C16.779 70.239 17.2365 70.0812 17.7086 69.904C17.718 69.9497 17.7328 69.9941 17.7527 70.0362C17.774 70.0825 17.8011 70.1259 17.8333 70.1654Z" fill="#FFCF6E"/>
<path d="M14.1394 69.3606C13.8189 69.6042 13.5169 69.8713 13.2358 70.1596C13.4019 69.9137 13.6881 69.6285 14.0944 69.3041L14.1394 69.3606Z" fill="#FFEC90"/>
<path d="M14.1855 69.4161L14.2737 69.5285C14.2605 69.5391 14.2468 69.5497 14.234 69.5607C14.2186 69.5131 14.2014 69.4651 14.1855 69.4161Z" fill="#FFEC90"/>
<path d="M23.214 67.5411C22.1527 68.1953 21.0508 68.7812 19.915 69.2954C19.2098 69.6175 18.5072 69.9124 17.8333 70.1632C17.801 70.1228 17.774 70.0783 17.7531 70.031C17.7332 69.9888 17.7184 69.9444 17.709 69.8987C18.3833 69.6471 19.0877 69.354 19.7942 69.0305C20.9953 68.4808 22.1249 67.8805 23.0593 67.2943C24.7316 66.2462 25.3684 65.4965 25.253 65.2439C25.1838 65.0932 24.7606 64.9971 23.7791 65.1796L23.7394 64.9662L23.7262 64.8953C24.241 64.7996 24.6438 64.7692 24.9392 64.8045C25.2442 64.8411 25.4346 64.9473 25.5157 65.1236C25.8017 65.7499 24.4217 66.7839 23.214 67.5411Z" fill="#FFEC90"/>
<path d="M18.7402 70.5581C17.928 70.8842 17.0993 71.1675 16.2574 71.407C15.3693 71.6551 14.0298 71.9588 13.177 71.8244C12.8142 71.7666 12.5405 71.6304 12.4246 71.3775C12.1249 70.7238 13.1298 69.7678 14.029 69.0811L14.1171 69.1966C14.1312 69.246 14.1458 69.2953 14.1612 69.3442C14.1537 69.3495 14.1462 69.3548 14.1396 69.3606L14.0955 69.3041C13.6886 69.6294 13.4024 69.9146 13.2369 70.1596C12.7265 70.6956 12.5992 71.065 12.6873 71.2576C12.8464 71.6044 13.8557 71.779 16.1799 71.1289C16.8317 70.9468 17.5277 70.715 18.2448 70.4408C18.4047 70.4994 18.571 70.5388 18.7402 70.5581Z" fill="#FFCF6E"/>
<path d="M14.0953 69.3041L14.1394 69.3606C13.8189 69.6042 13.5169 69.8713 13.2358 70.1596C13.4027 69.9137 13.6892 69.6285 14.0953 69.3041Z" fill="#FFAA39"/>
<path d="M14.1172 69.1957L14.2053 69.3099L14.1613 69.3434C14.1458 69.2953 14.1313 69.246 14.1172 69.1957Z" fill="#FFEC90"/>
<path d="M23.9048 67.9087C22.8532 68.6064 21.5741 69.3059 20.206 69.9318C19.715 70.1566 19.2244 70.3659 18.7405 70.5581C18.5711 70.5389 18.4047 70.4995 18.2446 70.4409C18.848 70.2112 19.4668 69.9521 20.0866 69.6691C21.4406 69.0494 22.7055 68.3578 23.7448 67.6681C25.7564 66.3343 26.284 65.4563 26.1249 65.1117C26.0368 64.9195 25.6753 64.7741 24.9388 64.8089C24.5354 64.8326 24.1344 64.8867 23.7391 64.9706L23.6593 64.9869L23.6007 64.7044C24.7066 64.4743 26.0883 64.3377 26.3872 64.9914C26.7772 65.8385 24.9992 67.1828 23.9048 67.9087Z" fill="#FFEC90"/>
<path d="M13.4781 72.6548C12.6848 72.6548 12.0122 72.4829 11.7768 71.9681C11.3255 70.9808 12.9351 69.577 13.9365 68.8277L14.2036 68.6276L14.2834 68.952C14.335 69.1616 14.4 69.3677 14.4778 69.569L14.535 69.718L14.4121 69.8194C14.0462 70.1213 13.9493 70.2826 13.9237 70.3434C13.9881 70.3646 14.1807 70.3976 14.6704 70.3121C15.7753 70.1182 17.6587 69.45 19.5848 68.569C21.5109 67.6879 23.2479 66.6997 24.1175 65.9901C24.5023 65.6758 24.6024 65.5088 24.6292 65.4462C24.5662 65.4255 24.3802 65.3933 23.9135 65.4726L23.7561 65.4995L23.6812 65.3589C23.5801 65.1687 23.4671 64.9851 23.3427 64.8093L23.1501 64.5369L23.4758 64.466C24.6962 64.1993 26.8114 63.8996 27.2628 64.8864C27.7621 65.9773 25.8131 67.5468 24.6068 68.3852C23.4582 69.1838 22.0504 69.9719 20.5426 70.6617C19.0347 71.3514 17.5172 71.9015 16.1619 72.2484C15.4073 72.4388 14.3654 72.6548 13.4781 72.6548ZM13.9427 69.3786C12.3939 70.5916 12.0086 71.4118 12.1796 71.7843C12.3736 72.2074 13.5019 72.4705 16.0517 71.8178C17.3819 71.4775 18.8725 70.9363 20.3579 70.2575C21.8432 69.5787 23.2263 68.803 24.3542 68.0198C26.5139 66.5186 27.0543 65.4916 26.8604 65.0667C26.6902 64.6947 25.818 64.4496 23.8875 64.8283C23.9245 64.8882 23.9602 64.9481 23.995 65.0094C24.6046 64.9243 24.9303 65.001 25.0453 65.2523C25.1714 65.5277 24.9713 65.8596 24.3965 66.329C23.4859 67.0721 21.756 68.0581 19.7686 68.9674C17.7812 69.8767 15.9032 70.5409 14.744 70.7441C14.0132 70.8719 13.6306 70.8062 13.5046 70.5308C13.39 70.2795 13.5451 69.9825 14.0079 69.577C13.9841 69.5122 13.9629 69.4456 13.9409 69.3786H13.9427Z" fill="#371A45"/>
<g opacity="0.41">
<path d="M24.2554 66.177C24.1557 66.2584 24.045 66.3434 23.923 66.4322C23.8728 66.2935 23.8165 66.1557 23.7542 66.0187C23.7445 65.9976 23.7344 65.9747 23.7247 65.9557C23.6885 65.8781 23.6502 65.8023 23.6105 65.7283C23.5051 65.5301 23.3874 65.3387 23.2579 65.1553L23.2112 65.0905C22.704 64.3995 22.0366 63.8421 21.2663 63.466C20.4961 63.09 19.646 62.9066 18.7892 62.9317C17.9324 62.9567 17.0946 63.1895 16.3476 63.6099C15.6006 64.0303 14.9669 64.6258 14.501 65.3453C14.9125 64.5424 15.5226 63.8581 16.2732 63.3575C17.0238 62.8569 17.89 62.5566 18.7894 62.4852C19.6888 62.4138 20.5915 62.5737 21.4116 62.9496C22.2318 63.3256 22.9422 63.9051 23.4752 64.633C23.4915 64.6546 23.507 64.6771 23.5224 64.6982C23.652 64.8815 23.7698 65.0729 23.875 65.2712C23.9149 65.3459 23.953 65.4215 23.9891 65.4982C23.9993 65.5194 24.0094 65.5423 24.0187 65.5617C24.1103 65.7617 24.1893 65.9671 24.2554 66.177Z" fill="#CEB7FF"/>
</g>
<path d="M14.5959 70.771L14.517 70.6436C14.3967 70.4484 14.2885 70.246 14.193 70.0376C14.146 69.9344 14.1019 69.8306 14.0608 69.726C13.5777 68.4726 13.5688 67.086 14.0358 65.8266C14.5029 64.5672 15.4137 63.5216 16.5972 62.8863C17.7806 62.251 19.1554 62.0696 20.4631 62.3763C21.7709 62.683 22.9216 63.4567 23.6993 64.5519C23.8343 64.743 23.9572 64.9423 24.0673 65.1487C24.1197 65.2474 24.17 65.3484 24.2171 65.4515C24.3124 65.6601 24.3948 65.8742 24.464 66.0928L24.508 66.2356L24.3917 66.3304C23.4811 67.0735 21.7511 68.0595 19.7637 68.9687C17.7764 69.878 15.8983 70.5422 14.7391 70.7454L14.5959 70.771ZM19.2035 62.6725C18.38 62.6711 17.5685 62.8706 16.8395 63.2537C16.1105 63.6368 15.486 64.192 15.0201 64.8711C14.5542 65.5502 14.261 66.3327 14.166 67.1508C14.0709 67.9688 14.1769 68.7977 14.4747 69.5655C14.5117 69.6619 14.5519 69.7575 14.5954 69.8525C14.662 69.9983 14.736 70.1416 14.8158 70.2804C15.9367 70.0561 17.7398 69.4082 19.5817 68.5654C21.4236 67.7227 23.0928 66.7821 23.9959 66.0809C23.943 65.9297 23.8831 65.7799 23.8161 65.634C23.7729 65.5391 23.727 65.4464 23.6785 65.3559C23.5772 65.1657 23.464 64.9822 23.3396 64.8062C22.8709 64.1459 22.2507 63.6076 21.5311 63.2363C20.8114 62.8651 20.0133 62.6717 19.2035 62.6725Z" fill="#371A45"/>
</svg>
